# xmcd CD database file
#
# Track frame offsets:
#	150
#	22400
#	41511
#	65409
#	87454
#	108706
#	129489
#	149633
#	170899
#	195283
#	212783
#
# Disc length: 3133 seconds
#
# Revision: 0
# Processed by: cddbd v1.5.2PL0 Copyright (c) Steve Scherf et al.
# Submitted via: CDex 1.51
#
DISCID=ad0c3b0b
DTITLE=Ricardo Lemvo and Makina Loca - Isabela
DYEAR=2007
DGENRE=Salsa
TTITLE0=Kasongo Boogaloo
TTITLE1=Malmbo
TTITLE2=O Casamento
TTITLE3=Lollobrigida
TTITLE4=Habari Yako
TTITLE5=Serenata Angolana
TTITLE6=Mentirosa
TTITLE7=Isabela
TTITLE8=Prima Donna
TTITLE9=Papa Na Bana
TTITLE10=Elbette
EXTD=YEAR: 2007
EXTT0=
EXTT1=
EXTT2=
EXTT3=
EXTT4=
EXTT5=
EXTT6=
EXTT7=
EXTT8=
EXTT9=
EXTT10=
PLAYORDER=
